<svg xmlns="http://www.w3.org/2000/svg" width="192" height="192" viewBox="0 0 192 192">
  <!-- Background -->
  <rect width="192" height="192" fill="#0a0a0f" rx="32"/>

  <!-- Grid lines -->
  <g stroke="rgba(0,255,242,0.06)" stroke-width="1">
    <line x1="0" y1="48" x2="192" y2="48"/>
    <line x1="0" y1="96" x2="192" y2="96"/>
    <line x1="0" y1="144" x2="192" y2="144"/>
    <line x1="48" y1="0" x2="48" y2="192"/>
    <line x1="96" y1="0" x2="96" y2="192"/>
    <line x1="144" y1="0" x2="144" y2="192"/>
  </g>

  <!-- Outer diamond -->
  <polygon points="96,20 172,96 96,172 20,96"
    fill="none" stroke="#00fff2" stroke-width="3"
    filter="url(#glow-cyan)"
  />

  <!-- Inner diamond -->
  <polygon points="96,45 147,96 96,147 45,96"
    fill="rgba(0,255,242,0.05)" stroke="#ff00ff" stroke-width="2"
    filter="url(#glow-magenta)"
  />

  <!-- Center hexagon -->
  <polygon points="96,72 114,84 114,108 96,120 78,108 78,84"
    fill="rgba(0,255,242,0.1)" stroke="#00fff2" stroke-width="2"
  />

  <!-- Center dot -->
  <circle cx="96" cy="96" r="8" fill="#00fff2" opacity="0.9"/>
  <circle cx="96" cy="96" r="4" fill="#ffffff" opacity="0.8"/>

  <!-- S letter -->
  <text x="96" y="102" text-anchor="middle" font-family="'JetBrains Mono', monospace" font-size="14" font-weight="bold" fill="none" stroke="#0a0a0f" stroke-width="0.5">SG</text>

  <!-- Filters -->
  <defs>
    <filter id="glow-cyan" x="-20%" y="-20%" width="140%" height="140%">
      <feGaussianBlur in="SourceGraphic" stdDeviation="3" result="blur"/>
      <feColorMatrix type="matrix" values="0 0 0 0 0  0 1 1 0 0  0 1 1 0 0  0 0 0 0.8 0" in="blur" result="coloredBlur"/>
      <feMerge><feMergeNode in="coloredBlur"/><feMergeNode in="SourceGraphic"/></feMerge>
    </filter>
    <filter id="glow-magenta" x="-20%" y="-20%" width="140%" height="140%">
      <feGaussianBlur in="SourceGraphic" stdDeviation="2" result="blur"/>
      <feColorMatrix type="matrix" values="1 0 1 0 0  0 0 1 0 0  1 0 1 0 0  0 0 0 0.6 0" in="blur" result="coloredBlur"/>
      <feMerge><feMergeNode in="coloredBlur"/><feMergeNode in="SourceGraphic"/></feMerge>
    </filter>
  </defs>
</svg>
